<svg width="341" height="154" fill="#eff2f6" xmlns="http://www.w3.org/2000/svg">
  <path clip-rule="evenodd" d="M369.38 142.9a13.17 13.17 0 01-20.58 7.64c-13.02-9.26-19-24.25-24.1-36.96-6.64-16.61-10.96-26.12-22.47-28.54-11.51-2.43-19.3 4.52-32.08 17.05-13.35 13.09-29.97 29.38-55.88 23.92-25.91-5.45-34.54-27.06-41.48-44.42-6.63-16.6-10.95-26.12-22.44-28.54-11.5-2.41-19.28 4.53-32.06 17.06-13.35 13.1-29.97 29.38-55.87 23.93-25.9-5.46-34.54-27.07-41.48-44.42C15.96 37.15 12.28 28.67 5.9 24.2A12.8 12.8 0 01.62 11.08 13.17 13.17 0 0115.25 1c2.16.3 4.2 1.13 5.96 2.42 13 9.26 19 24.24 24.06 36.95 6.64 16.6 10.96 26.11 22.45 28.54 11.5 2.42 19.29-4.53 32.06-17.07 13.35-13.08 29.97-29.37 55.87-23.91 25.9 5.45 34.54 27.06 41.48 44.41 6.63 16.61 10.94 26.12 22.44 28.54 11.5 2.42 19.3-4.52 32.08-17.06 13.35-13.09 29.97-29.37 55.88-23.91 25.92 5.45 34.56 27.05 41.5 44.42 5 12.47 8.67 20.95 15.07 25.42a12.78 12.78 0 015.27 13.13h.01z"/>
</svg>
